# xmcd
#
# Track frame offsets:
#	150
#	15027
#	28890
#	42502
#	57016
#	77693
#	93368
#	110519
#	125311
#
# Disc length: 1890 seconds
#
# Revision: 0
# Processed by: cddbd v1.5.1PL0 Copyright (c) Steve Scherf et al.
# Submitted via: dBpowerAMP V4.0
#
DISCID=63076009
DTITLE=Cerberus - Ebola
DYEAR=1900
DGENRE=
TTITLE0=Unbaptized
TTITLE1=Fetal Butchery
TTITLE2=Ebola
TTITLE3=Killing Them
TTITLE4=Inmortal Hate
TTITLE5=Smell To Rot
TTITLE6=Repulsive Life-Forms
TTITLE7=Suicidal Blood
TTITLE8=Divine Slaughters
EXTD=CHILEAN DEATH METAL
EXTT0=
EXTT1=
EXTT2=
EXTT3=
EXTT4=
EXTT5=
EXTT6=
EXTT7=
EXTT8=
PLAYORDER=
